<svg width="37" height="35" viewBox="0 0 37 35" fill="none" xmlns="http://www.w3.org/2000/svg">
<path d="M9.89738 18.875V15.375C9.89738 14.2147 10.3583 13.1019 11.1788 12.2814C11.9993 11.4609 13.1121 11 14.2724 11C15.4327 11 16.5455 11.4609 17.366 12.2814C18.1864 13.1019 18.6474 14.2147 18.6474 15.375V18.875M23.1142 15.375H5.43056C5.21522 15.375 5.00745 15.4544 4.847 15.598C4.68655 15.7416 4.58469 15.9394 4.56091 16.1534L3.00535 30.1534C2.99176 30.2757 3.00412 30.3995 3.04163 30.5167C3.07914 30.6339 3.14094 30.7419 3.22301 30.8336C3.30508 30.9253 3.40557 30.9986 3.51792 31.0488C3.63027 31.099 3.75194 31.125 3.875 31.125H24.6698C24.7928 31.125 24.9145 31.099 25.0269 31.0488C25.1392 30.9986 25.2397 30.9253 25.3218 30.8336C25.4038 30.7419 25.4657 30.6339 25.5032 30.5167C25.5407 30.3995 25.553 30.2757 25.5394 30.1534L23.9839 16.1534C23.9601 15.9394 23.8582 15.7416 23.6978 15.598C23.5373 15.4544 23.3296 15.375 23.1142 15.375Z" stroke="#333E5C" stroke-width="1.5" stroke-linecap="round" stroke-linejoin="round"/>
<circle cx="27.0002" cy="10" r="9" fill="#F45351" stroke="white" stroke-width="2"/>
<path d="M29.3562 14H23.9322V13.088L26.8962 10.064C27.6882 9.272 28.0842 8.592 28.0842 8.024C28.0842 7.56 27.9402 7.196 27.6522 6.932C27.3722 6.66 27.0202 6.524 26.5962 6.524C25.8042 6.524 25.2282 6.9 24.8682 7.652L23.9322 7.1C24.1882 6.564 24.5482 6.156 25.0122 5.876C25.4762 5.588 26.0002 5.444 26.5842 5.444C27.2962 5.444 27.9082 5.676 28.4202 6.14C28.9402 6.612 29.2002 7.236 29.2002 8.012C29.2002 8.86 28.7002 9.784 27.7002 10.784L25.5522 12.92H29.3562V14Z" fill="white"/>
</svg>
