<svg width="36" height="36" viewBox="0 0 36 36" fill="none" xmlns="http://www.w3.org/2000/svg">
<path d="M16.8302 11.4955L7.89793 15.6703L5.76197 12.5149C5.61633 12.2722 5.71342 11.9324 5.95615 11.7868L8.38338 10.6702L12.4611 13.0975C12.5582 13.146 12.7039 13.1945 12.8495 13.0975C13.1893 12.9033 12.9951 12.6606 13.0437 10.1848C14.4515 10.0391 15.7136 10.476 16.8302 11.4955Z" fill="white"/>
<path d="M5.76214 19.7963L7.89811 16.6409L18.4809 21.5924L16.3449 24.8935C16.1993 25.0876 15.9565 25.1847 15.7138 25.0876L5.95632 20.4759C5.66505 20.3788 5.61651 20.039 5.76214 19.7963Z" fill="white"/>
<path d="M16.539 25.9134L18.5779 22.758V32.0786L8.33497 27.2727C8.14079 27.1756 8.0437 27.03 8.0437 26.8358L8.09225 22.2726L16.1021 26.0591C16.1507 26.0591 16.1992 26.1076 16.2478 26.1076C16.2963 26.1076 16.3448 26.1076 16.3934 26.0591C16.3934 26.0591 16.3934 26.0591 16.4419 26.0591C16.4419 26.0105 16.4905 25.962 16.539 25.9134Z" fill="white"/>
<path d="M12.2671 12.1264L4.49994 7.5632L12.2185 3C12.3156 4.50489 11.9758 5.2816 12.5584 5.33015C12.6069 5.33015 18.2381 5.86414 20.2284 9.4079C21.1993 11.2041 21.1508 13.4371 20.0342 16.1071C19.0148 12.1264 16.5876 8.92245 12.5584 9.45644C12.0244 9.55353 12.3642 10.2817 12.2671 12.1264Z" fill="white"/>
<path d="M29.3062 16.1556L18.9662 21.0101L8.62616 16.1556L17.3642 12.0779C19.1118 14.1653 19.5973 17.2722 19.5973 17.3207C19.6458 17.6605 20.1313 17.7576 20.2769 17.4178C21.1507 15.6702 21.6361 14.0197 21.6847 12.5633L29.3062 16.1556Z" fill="white"/>
<path d="M29.8403 22.3208C29.7918 26.7384 30.0831 27.0782 29.5976 27.3209L19.3547 32.1268V22.7577L21.3936 25.9131C21.4421 25.9617 21.4906 26.0102 21.5392 26.0102C21.5877 26.0102 21.6363 26.0587 21.6848 26.0587C21.7334 26.0587 21.7819 26.0587 21.8305 26.0102C22.6557 25.6704 18.8692 27.4665 29.8403 22.3208Z" fill="white"/>
<path d="M30.0346 16.6409L32.1706 19.7963C32.3162 20.039 32.2191 20.3788 31.9764 20.5244L30.0831 21.3983C30.0346 21.3983 22.1703 25.0876 22.2189 25.0876C21.9762 25.1847 21.7334 25.1362 21.5878 24.8935L19.4518 21.5924L30.0346 16.6409Z" fill="white"/>
<path d="M20.908 9.06803C20.8594 8.97094 20.8109 8.87385 20.7138 8.77676L21.5876 7.41751C21.7332 7.22333 21.976 7.12624 22.2187 7.22333L31.9762 11.8351C32.2674 11.9807 32.316 12.3205 32.1704 12.5632L30.0344 15.7187L21.6847 11.7865C21.6362 10.8156 21.3449 9.89329 20.908 9.06803Z" fill="white"/>
</svg>
