<svg width="18" height="18" viewBox="0 0 18 18" fill="none" xmlns="http://www.w3.org/2000/svg">
<path d="M12.6132 10.4062C12.4936 11.1724 12.1337 11.8808 11.5854 12.4291C11.037 12.9774 10.3287 13.3374 9.56253 13.457" stroke="#333E5C" stroke-linecap="round" stroke-linejoin="round"/>
<path d="M5.06503 4.59544C3.97953 6.23184 3.09375 8.10107 3.09375 9.84375C3.09375 11.4102 3.71601 12.9125 4.82365 14.0201C5.93129 15.1277 7.43357 15.75 9 15.75C10.5664 15.75 12.0687 15.1277 13.1763 14.0201C14.284 12.9125 14.9062 11.4102 14.9062 9.84375C14.9062 6.1875 12.375 3.375 10.3235 1.3269L10.3235 1.32696L7.875 6.46875L5.0651 4.59549L5.06503 4.59544Z" stroke="#333E5C" stroke-linecap="round" stroke-linejoin="round"/>
</svg>
