<svg width="37" height="35" viewBox="0 0 37 35" fill="none" xmlns="http://www.w3.org/2000/svg">
<path d="M14 30.625C14 30.625 3.0625 24.5 3.0625 17.0625C3.06272 15.748 3.51821 14.4741 4.35153 13.4574C5.18485 12.4408 6.34456 11.7441 7.63349 11.4859C8.92241 11.2276 10.261 11.4238 11.4217 12.0409C12.5823 12.6581 13.4934 13.6582 14 14.8712L14 14.8712C14.5066 13.6582 15.4177 12.6581 16.5783 12.0409C17.739 11.4238 19.0776 11.2276 20.3665 11.4859C21.6554 11.7441 22.8151 12.4408 23.6485 13.4574C24.4818 14.4741 24.9373 15.748 24.9375 17.0625C24.9375 24.5 14 30.625 14 30.625Z" stroke="#333E5C" stroke-width="1.5" stroke-linecap="round" stroke-linejoin="round"/>
<circle cx="27.0002" cy="10" r="9" fill="#F45351" stroke="white" stroke-width="2"/>
<path d="M29.3562 14H23.9322V13.088L26.8962 10.064C27.6882 9.272 28.0842 8.592 28.0842 8.024C28.0842 7.56 27.9402 7.196 27.6522 6.932C27.3722 6.66 27.0202 6.524 26.5962 6.524C25.8042 6.524 25.2282 6.9 24.8682 7.652L23.9322 7.1C24.1882 6.564 24.5482 6.156 25.0122 5.876C25.4762 5.588 26.0002 5.444 26.5842 5.444C27.2962 5.444 27.9082 5.676 28.4202 6.14C28.9402 6.612 29.2002 7.236 29.2002 8.012C29.2002 8.86 28.7002 9.784 27.7002 10.784L25.5522 12.92H29.3562V14Z" fill="white"/>
</svg>
