<svg width="170" height="37" viewBox="0 0 170 37" fill="none" xmlns="http://www.w3.org/2000/svg">
<path d="M14.5974 3.86023C16.0641 3.86023 17.4209 4.44291 18.3743 5.42618C19.1076 6.15453 19.621 7.10138 19.841 8.15748H17.7509C17.6042 7.64764 17.3109 7.21063 16.9442 6.84646C16.3575 6.26378 15.5141 5.86319 14.5974 5.86319C13.6806 5.86319 12.8373 6.22736 12.2506 6.84646C11.8839 7.21063 11.5905 7.64764 11.4438 8.15748H9.35372C9.57373 7.10138 10.0871 6.15453 10.8205 5.42618C11.7739 4.44291 13.1306 3.86023 14.5974 3.86023ZM14.5974 7.72047C15.0007 7.72047 15.3674 7.86614 15.6241 8.15748C15.8808 8.4124 16.0641 8.77657 16.0641 9.17716C16.0641 9.57775 15.9174 9.94193 15.6241 10.1968C15.3674 10.4518 15.0007 10.6339 14.5974 10.6339C14.194 10.6339 13.8273 10.4882 13.5706 10.1968C13.314 9.94193 13.1306 9.57775 13.1306 9.17716C13.1306 8.77657 13.2773 8.4124 13.5706 8.15748C13.8273 7.90256 14.194 7.72047 14.5974 7.72047ZM14.5974 0C17.1642 0 19.4743 1.01969 21.1244 2.69488C22.5912 4.11516 23.5446 6.04527 23.7646 8.1939H21.7111C21.4911 6.62795 20.7577 5.20768 19.6577 4.11516C18.3376 2.80413 16.5408 2.00295 14.5607 2.00295C12.5806 2.00295 10.7471 2.80413 9.46373 4.11516C8.40033 5.17126 7.63028 6.59153 7.41027 8.1939H5.35681C5.57682 6.04527 6.56688 4.15157 7.99697 2.69488C9.75708 1.01969 12.0672 0 14.5974 0Z" fill="white"/>
<path fill-rule="evenodd" clip-rule="evenodd" d="M5.76012 31.0639H14.5973H23.4345C25.268 31.0639 26.5147 29.5707 26.7714 27.7499L29.1915 9.7233C29.2282 9.39555 28.9348 9.14062 28.6048 9.14062H17.9342C17.9342 10.0511 17.5675 10.8522 16.9441 11.4713C16.3574 12.054 15.514 12.4546 14.5973 12.4546C13.6806 12.4546 12.8372 12.0904 12.2505 11.4713C11.6638 10.8522 11.2605 10.0511 11.2605 9.14062H0.58981C0.25979 9.14062 -0.0335609 9.39555 0.003108 9.7233L2.42325 27.7499C2.67994 29.5707 3.92668 31.0639 5.76012 31.0639Z" fill="white"/>
<path fill-rule="evenodd" clip-rule="evenodd" d="M51.5962 11.9076C51.5962 13.2186 52.6596 14.2019 54.053 14.2019C55.4464 14.2019 56.5098 13.2186 56.5098 11.9076C56.5098 10.5965 55.4464 9.61328 54.053 9.61328C52.6596 9.61328 51.5962 10.5965 51.5962 11.9076Z" fill="white"/>
<path d="M56.1799 15.4766H51.9263V29.0966H56.1799V15.4766Z" fill="white"/>
<path fill-rule="evenodd" clip-rule="evenodd" d="M76.7511 11.9076C76.7511 13.2186 77.8145 14.2019 79.2079 14.2019C80.5647 14.2019 81.6281 13.2186 81.6281 11.9076C81.6281 10.5965 80.5647 9.61328 79.1712 9.61328C77.7778 9.61328 76.7511 10.5965 76.7511 11.9076Z" fill="white"/>
<path d="M81.298 15.4766H77.0444V29.0966H81.298V15.4766Z" fill="white"/>
<path fill-rule="evenodd" clip-rule="evenodd" d="M89.8052 19.119H92.8121V15.4773H89.8052V11.5078L85.5516 12.1269V15.4409H83.3148V19.0826H85.5516V24.5452C85.5516 27.6043 87.3484 29.3523 90.2819 29.3523C91.3086 29.3523 92.2987 29.1338 92.9587 28.7332V25.6741C92.592 25.747 92.0053 25.747 91.5653 25.747C90.3186 25.747 89.8052 25.2371 89.8052 24.1446V19.119Z" fill="white"/>
<path fill-rule="evenodd" clip-rule="evenodd" d="M115.767 22.5423C114.263 24.6181 112.503 25.6742 110.01 25.6742C106.966 25.6742 104.693 23.1978 104.693 19.9202C104.693 16.6427 106.783 14.1663 109.753 14.1663C111.66 14.1663 113.2 15.2588 113.75 17.2254H118.37C117.417 12.9281 114.117 10.3789 109.716 10.3789C104.253 10.3789 100.256 14.4941 100.256 19.9202C100.256 25.2736 104.363 29.4616 109.826 29.4616C113.713 29.4616 116.317 27.5315 118.15 24.3267L115.767 22.5423Z" fill="white"/>
<path fill-rule="evenodd" clip-rule="evenodd" d="M119.654 22.2862C119.654 26.2921 122.33 29.424 126.107 29.424C127.904 29.424 129.407 28.7321 130.471 27.6032V29.0963H134.651V15.4762H130.471V16.9693C129.407 15.8404 127.904 15.1484 126.107 15.1484C122.33 15.1484 119.654 18.2803 119.654 22.2862ZM123.87 22.2862C123.87 20.3561 125.301 18.863 127.171 18.863C129.041 18.863 130.508 20.3561 130.508 22.2862C130.508 24.2163 129.041 25.7095 127.171 25.7095C125.301 25.7095 123.87 24.2528 123.87 22.2862Z" fill="white"/>
<path fill-rule="evenodd" clip-rule="evenodd" d="M144.918 18.863C145.432 18.863 146.055 18.9723 146.605 19.1543L146.899 15.3669C146.642 15.2577 146.275 15.1484 145.872 15.1484C144.332 15.1484 143.122 15.8768 142.242 17.0057V15.4762H137.988V29.0963H142.242V21.8492C142.242 19.9555 143.488 18.863 144.918 18.863Z" fill="white"/>
<path fill-rule="evenodd" clip-rule="evenodd" d="M154.269 19.119H157.276V15.4773H154.269V11.5078L150.015 12.1269V15.4409H147.779V19.0826H150.015V24.5452C150.015 27.6043 151.812 29.3523 154.746 29.3523C155.773 29.3523 156.763 29.1338 157.423 28.7332V25.6741C157.056 25.747 156.469 25.747 156.029 25.747C154.782 25.747 154.269 25.2371 154.269 24.1446V19.119Z" fill="white"/>
<path fill-rule="evenodd" clip-rule="evenodd" d="M159.073 26.5458C160.576 28.4395 162.41 29.4228 164.463 29.4228C167.836 29.4228 170 27.6019 170 25.1619C170 22.8677 168.533 21.3745 165.38 20.719C163.876 20.3913 163.363 19.9178 163.363 19.3352C163.363 18.7525 163.913 18.3883 164.683 18.3883C165.526 18.3883 166.04 18.8617 166.223 19.6265H169.927C169.56 17.0409 167.726 15.1836 164.463 15.1836C161.456 15.1836 159.366 16.8952 159.366 19.2623C159.366 21.5566 160.906 23.0862 163.803 23.7052C165.38 24.033 165.93 24.47 165.93 25.1255C165.93 25.781 165.306 26.218 164.243 26.218C162.923 26.218 161.749 25.7082 160.649 24.6885L159.073 26.5458Z" fill="white"/>
<path fill-rule="evenodd" clip-rule="evenodd" d="M72.7541 22.2486V15.1836H68.9406V15.9848C67.9505 15.4749 66.8138 15.1836 65.6404 15.1836C61.7168 15.1836 58.5266 18.3519 58.5266 22.2486C58.5266 26.1452 61.7168 29.3135 65.6404 29.3135C69.5639 29.2771 72.7541 26.1452 72.7541 22.2486ZM65.6404 18.9346C63.8069 18.9346 62.3402 20.4277 62.3402 22.2486C62.3402 24.0694 63.8069 25.5261 65.6404 25.5261C67.4738 25.5261 68.9406 24.033 68.9406 22.2486C68.9772 20.4277 67.4738 18.9346 65.6404 18.9346Z" fill="white"/>
<path fill-rule="evenodd" clip-rule="evenodd" d="M72.9008 33.6123L70.2606 30.9902C69.1972 32.4469 67.5105 33.3209 65.677 33.3209C63.8436 33.3209 62.1568 32.4469 61.0934 30.9902L58.4532 33.6123C60.25 35.7609 62.8902 36.9991 65.677 36.9991C68.4639 36.9991 71.104 35.7245 72.9008 33.6123Z" fill="white"/>
<path fill-rule="evenodd" clip-rule="evenodd" d="M33.0417 10.668V29.0951H39.9722C45.5458 29.0951 49.2861 25.4534 49.2861 19.8815C49.2861 14.3097 45.5458 10.668 39.9722 10.668H33.0417ZM39.6788 14.4554C42.759 14.4554 44.8491 16.3127 44.8491 19.8815C44.8491 23.3412 42.9423 25.1256 40.0822 25.2713C39.6421 25.3077 39.2021 25.3077 38.7254 25.3077H37.442V14.4554H39.6788Z" fill="white"/>
</svg>
