<svg width="36" height="36" viewBox="0 0 36 36" fill="none" xmlns="http://www.w3.org/2000/svg">
<path d="M32.1565 28.0347L25.128 20.9924C24.0503 19.9126 22.3635 19.8657 21.2389 20.7577L19.9269 19.4431C19.8332 19.537 19.7863 19.6309 19.6926 19.6779C19.5989 19.7718 19.5052 19.8187 19.4583 19.9126L20.7703 21.2272C19.8801 22.4009 19.9269 24.0441 21.0046 25.1239L27.9863 32.1192C29.1577 33.293 30.9851 33.293 32.1565 32.1192C33.2811 31.0394 33.2811 29.1615 32.1565 28.0347ZM23.6286 25.1709C22.7852 25.1709 22.0823 24.4666 22.0823 23.6215C22.0823 22.7765 22.7852 22.0722 23.6286 22.0722C24.472 22.0722 25.1749 22.7765 25.1749 23.6215C25.1749 24.4666 24.472 25.1709 23.6286 25.1709ZM26.5337 28.1286C25.6903 28.1286 24.9874 27.4244 24.9874 26.5793C24.9874 25.7342 25.6903 25.03 26.5337 25.03C27.3771 25.03 28.08 25.7342 28.08 26.5793C28.08 27.4244 27.3771 28.1286 26.5337 28.1286ZM29.4857 31.0864C28.6423 31.0864 27.9394 30.3821 27.9394 29.5371C27.9394 28.692 28.6423 27.9878 29.4857 27.9878C30.3291 27.9878 31.0319 28.692 31.0319 29.5371C31.0319 30.3821 30.3291 31.0864 29.4857 31.0864Z" fill="white"/>
<path d="M26.5337 27.4245C26.9995 27.4245 27.3771 27.0462 27.3771 26.5794C27.3771 26.1127 26.9995 25.7344 26.5337 25.7344C26.0679 25.7344 25.6903 26.1127 25.6903 26.5794C25.6903 27.0462 26.0679 27.4245 26.5337 27.4245Z" fill="white"/>
<path d="M23.6285 24.5141C24.0943 24.5141 24.4719 24.1358 24.4719 23.669C24.4719 23.2023 24.0943 22.824 23.6285 22.824C23.1627 22.824 22.7851 23.2023 22.7851 23.669C22.7851 24.1358 23.1627 24.5141 23.6285 24.5141Z" fill="white"/>
<path d="M29.4856 30.3827C29.9514 30.3827 30.329 30.0043 30.329 29.5376C30.329 29.0709 29.9514 28.6925 29.4856 28.6925C29.0198 28.6925 28.6422 29.0709 28.6422 29.5376C28.6422 30.0043 29.0198 30.3827 29.4856 30.3827Z" fill="white"/>
<path d="M6.49008 18.5098L6.4901 18.5098L6.48556 18.5053C3.17386 15.2356 3.16734 9.81291 6.49008 6.49017C9.81031 3.16994 15.1895 3.16994 18.5097 6.49017C21.8325 9.81291 21.826 15.2356 18.5143 18.5053L18.5142 18.5053L18.5097 18.5098C15.1895 21.8301 9.81031 21.8301 6.49008 18.5098Z" stroke="white" stroke-width="2"/>
</svg>
