<svg width="32" height="32" viewBox="0 0 32 32" fill="none" xmlns="http://www.w3.org/2000/svg">
<path d="M23.7644 21.9447L23.2149 21.2779C21.3836 19.2168 18.7589 17.7314 17.8739 17.2767L17.4162 18.0344C17.0805 18.5799 16.3786 18.8529 15.7376 18.7013H15.7071C14.9441 18.4588 14.4864 17.6708 14.6695 16.913C14.8221 16.2159 15.0968 15.549 15.463 14.9428L14.6695 14.8217C14.1203 14.7307 13.5403 14.8519 13.052 15.1249L12.5942 15.3674C12.0143 15.6706 11.3429 15.7008 10.7629 15.4583L9.7862 15.0642L6.06277 20.7628L7.43611 21.6722L8.16864 20.9446C8.44327 20.6719 8.80967 20.5203 9.20627 20.5203C9.60309 20.5203 9.96926 20.6719 10.2439 20.9446C10.4881 21.1872 10.6407 21.4901 10.6712 21.854C11.1595 21.7329 11.6783 21.854 12.0752 22.2177C12.3498 22.4905 12.5024 22.8544 12.5024 23.2483C12.5024 23.3694 12.472 23.4908 12.4413 23.6119C12.7771 23.6422 13.1128 23.7938 13.3263 24.0363C13.6925 24.4 13.8147 24.9457 13.6925 25.4307C14.0282 25.461 14.3639 25.6126 14.5774 25.8551C14.8521 26.1278 15.0047 26.4917 15.0047 26.8856C15.0047 27.2191 14.8827 27.5525 14.669 27.795L15.432 28.7044C15.8288 29.0985 16.5003 29.0985 16.8969 28.7044C17.08 28.5226 17.2022 28.2498 17.2022 27.9769C17.2022 27.7041 17.1106 27.4616 16.9275 27.2798L16.6223 26.9766C16.4696 26.825 16.4696 26.5825 16.6223 26.4613C16.7749 26.3097 17.0191 26.3097 17.1411 26.4613L17.6905 27.007C18.0874 27.4011 18.7588 27.4011 19.1861 27.007L19.2165 26.9768C19.5827 26.5827 19.5827 25.9462 19.1861 25.5521L18.6368 24.8548C18.4842 24.7032 18.4842 24.4607 18.6368 24.3395C18.7895 24.1879 19.0336 24.1879 19.1556 24.3395L20.0713 25.2489C20.4681 25.6431 21.17 25.6431 21.5668 25.2489C21.7499 25.0671 21.8721 24.7944 21.8721 24.5214C21.8721 24.2487 21.7805 24.0061 21.5975 23.7939L20.6207 22.8543C20.5596 22.7936 20.4987 22.6724 20.4987 22.5815C20.4987 22.4906 20.5292 22.3997 20.6207 22.3088C20.7733 22.1572 21.0175 22.1572 21.1395 22.3088L22.3298 23.4909C22.5435 23.7032 22.8486 23.8244 23.1843 23.8244C23.459 23.8244 23.7336 23.7032 23.9169 23.5211C24.1 23.3393 24.1915 23.0666 24.1915 22.824C24.1915 22.7029 24.1611 22.5513 24.1304 22.4299C24.0084 22.2483 23.8862 22.0967 23.7642 21.9451L23.7644 21.9447Z" fill="white"/>
<path d="M19.4003 14.8215L18.0573 14.3669C17.3859 14.1547 16.6533 14.3972 16.2567 14.9731L16.1956 15.064C15.7988 15.64 15.5242 16.3069 15.3715 17.004C15.28 17.3981 15.5242 17.792 15.9208 17.9436C16.2261 18.0345 16.5922 17.9134 16.7753 17.6102L17.4166 16.5796C17.4777 16.4585 17.5997 16.3978 17.7219 16.3978C17.783 16.3978 17.8439 16.3978 17.8745 16.428C18.0883 16.5189 22.6662 18.7923 24.772 22.0963L26.9694 20.8535L23.246 15.0033C21.964 15.3065 20.6517 15.2458 19.4004 14.8215L19.4003 14.8215Z" fill="white"/>
<path d="M14.0897 26.3399C13.9677 26.2188 13.7844 26.1276 13.5709 26.1276C13.3878 26.1276 13.2047 26.1883 13.0521 26.3399L12.0449 27.3402C11.7703 27.6129 11.7703 28.0677 12.0449 28.3405C12.3196 28.6132 12.7775 28.6132 13.0521 28.3405L14.0592 27.3402C14.1812 27.219 14.273 27.037 14.273 26.8249C14.3032 26.6733 14.2117 26.4915 14.0897 26.3399L14.0897 26.3399Z" fill="white"/>
<path d="M12.8079 24.5515C12.6859 24.4304 12.5026 24.3392 12.2891 24.3392C12.0754 24.3392 11.9229 24.3999 11.7703 24.5515L10.5189 25.7943C10.3969 25.9155 10.3052 26.0976 10.3052 26.3096C10.3052 26.4915 10.3663 26.6733 10.5189 26.8249C10.7935 27.0976 11.2514 27.0976 11.5261 26.8249L12.7774 25.5821C13.0827 25.2791 13.0827 24.8243 12.8079 24.5515H12.8079Z" fill="white"/>
<path d="M11.7394 23.2482C11.7394 23.0663 11.6783 22.8845 11.5256 22.7329C11.373 22.5813 11.1899 22.5206 11.0068 22.5206C10.8237 22.5206 10.6406 22.5813 10.488 22.7329L8.962 24.2485C8.84002 24.3696 8.74826 24.5517 8.74826 24.7638C8.74826 24.976 8.80936 25.1274 8.962 25.279C9.23663 25.5518 9.69453 25.5518 9.96916 25.279L11.4952 23.7635C11.6478 23.6121 11.7393 23.4302 11.7393 23.2482H11.7394Z" fill="white"/>
<path d="M9.69478 21.4598C9.57279 21.3386 9.38949 21.2475 9.17597 21.2475C8.99288 21.2475 8.80979 21.3082 8.65716 21.4598L7.40579 22.7026C7.2838 22.8238 7.19205 23.0058 7.19205 23.2179C7.19205 23.3997 7.25315 23.5816 7.40579 23.7332C7.68042 24.0059 8.13832 24.0059 8.41294 23.7332L9.66431 22.4903C9.99982 22.1873 9.99982 21.7325 9.69476 21.4598H9.69478Z" fill="white"/>
<path d="M9.17597 13.3665L7.43623 12.2753C7.13094 12.0935 6.73432 12.1844 6.55126 12.4572L2.09525 19.3682C1.91217 19.6714 2.00371 20.0653 2.27834 20.2471L4.01808 21.3384C4.17072 21.4293 4.32337 21.4595 4.50645 21.4293C4.65909 21.399 4.81173 21.3081 4.90327 21.1565L9.32859 14.2455C9.54212 13.9425 9.48102 13.5484 9.17595 13.3665H9.17597ZM4.65887 19.6714C4.47578 19.9746 4.04852 20.0655 3.74322 19.8836C3.43793 19.7018 3.34639 19.2775 3.52947 18.9742C3.71256 18.671 4.13982 18.5801 4.44512 18.762C4.78106 18.9742 4.87261 19.3681 4.65887 19.6714Z" fill="white"/>
<path d="M30.9061 19.3682L26.4501 12.4572C26.3586 12.3056 26.2059 12.2147 26.0533 12.1844C25.9006 12.1542 25.7176 12.1844 25.5649 12.2753L23.8254 13.3666C23.5201 13.5484 23.4286 13.9425 23.6423 14.2455L28.0676 21.1565C28.2507 21.4597 28.6476 21.5507 28.9526 21.3384L30.6923 20.2472C30.9976 20.0655 31.0892 19.6412 30.9061 19.3682H30.9061ZM29.2275 19.8835C28.9222 20.0653 28.5256 19.9744 28.3118 19.6712C28.1287 19.368 28.2203 18.9741 28.5256 18.7618C28.8308 18.5495 29.2275 18.6709 29.4412 18.9741C29.6243 19.2773 29.5328 19.6714 29.2275 19.8835Z" fill="white"/>
<path d="M16.5006 12.7603C19.2168 12.7603 21.4143 10.5779 21.4143 7.88017C21.4143 5.18244 19.2168 3 16.5006 3C13.7843 3 11.5869 5.18244 11.5869 7.88017C11.5869 10.5476 13.7843 12.7603 16.5006 12.7603ZM14.3032 7.24362C14.5169 7.09202 14.7915 7.12247 14.9746 7.30431L15.9206 8.18324L17.9959 6.09168C18.2096 5.8794 18.5451 5.8794 18.7589 6.09168C18.942 6.27352 18.9726 6.57672 18.82 6.78879L16.531 9.72902L16.5006 9.75925C16.2564 10.0625 15.8291 10.1229 15.5238 9.88041C15.4627 9.85017 15.4323 9.78949 15.3712 9.72881L14.1505 8.00094C13.9978 7.72861 14.0589 7.39519 14.3031 7.24358L14.3032 7.24362Z" fill="white"/>
</svg>
