<svg width="18" height="18" viewBox="0 0 18 18" fill="none" xmlns="http://www.w3.org/2000/svg">
<path d="M6.61352 12.9775C5.81803 15.364 2.63605 15.364 2.63605 15.364C2.63605 15.364 2.63605 12.182 5.02253 11.3865" stroke="#333E5C" stroke-linecap="round" stroke-linejoin="round"/>
<path d="M13.773 7.40904L9 12.182L5.81802 9.00003L10.591 4.22706C12.3983 2.41974 14.2056 2.43737 14.9764 2.55236C15.0951 2.57006 15.2049 2.6254 15.2898 2.71024C15.3746 2.79509 15.43 2.90494 15.4477 3.02362C15.5627 3.79439 15.5803 5.60172 13.773 7.40904Z" stroke="#333E5C" stroke-linecap="round" stroke-linejoin="round"/>
<path d="M12.9775 8.20447V12.7444C12.9775 12.8183 12.9629 12.8915 12.9347 12.9597C12.9064 13.0279 12.865 13.09 12.8127 13.1422L10.5387 15.4162C10.4667 15.4882 10.3765 15.5393 10.2778 15.5641C10.179 15.5888 10.0754 15.5863 9.97794 15.5568C9.8805 15.5273 9.79289 15.4719 9.72446 15.3966C9.65603 15.3212 9.60934 15.2286 9.58937 15.1288L9 12.1819" stroke="#333E5C" stroke-linecap="round" stroke-linejoin="round"/>
<path d="M9.79551 5.02246H5.25554C5.18167 5.02246 5.10852 5.03701 5.04028 5.06528C4.97203 5.09355 4.91002 5.13498 4.85779 5.18721L2.58376 7.46124C2.51177 7.53324 2.46066 7.62342 2.4359 7.72217C2.41114 7.82093 2.41364 7.92455 2.44314 8.02199C2.47265 8.11944 2.52804 8.20705 2.60343 8.27548C2.67881 8.34391 2.77136 8.3906 2.87119 8.41057L5.81804 8.99994" stroke="#333E5C" stroke-linecap="round" stroke-linejoin="round"/>
</svg>
