<svg width="36" height="36" viewBox="0 0 36 36" fill="none" xmlns="http://www.w3.org/2000/svg">
<path d="M10.1061 8.41821H6.81544C6.39235 9.2577 6.1573 10.1905 6.11029 11.1232H9.82407C9.82407 10.1905 9.91809 9.2577 10.1061 8.41821Z" fill="white"/>
<path d="M10.1061 14.4809C9.9651 13.6414 9.87108 12.7087 9.82407 11.7292H6.11029C6.1573 12.7553 6.39235 13.6881 6.81544 14.4809H10.1061Z" fill="white"/>
<path d="M7.14447 15.087C8.13168 16.6727 9.73002 17.8386 11.6574 18.2584C11.0463 17.5588 10.5292 16.4861 10.2001 15.087H7.14447Z" fill="white"/>
<path d="M11.6574 4.63965C9.77702 5.05939 8.13168 6.22535 7.14447 7.81106H10.2001C10.5292 6.45854 11.0463 5.33922 11.6574 4.63965Z" fill="white"/>
<path d="M15.3712 15.087H10.8583C11.8925 19.5176 14.29 19.471 15.3712 15.087Z" fill="white"/>
<path d="M15.3712 7.81132C14.8541 5.75924 13.9609 4.5 13.1147 4.5C12.2686 4.5 11.3754 5.75924 10.8583 7.81132H15.3712Z" fill="white"/>
<path d="M10.7171 14.4809H15.5121C15.6531 13.6881 15.7471 12.7553 15.7941 11.7292H10.435C10.435 12.7553 10.529 13.6881 10.7171 14.4809Z" fill="white"/>
<path d="M15.5121 8.41821H10.7171C10.576 9.21107 10.482 10.1438 10.435 11.1232H15.7471C15.7471 10.1438 15.6531 9.2577 15.5121 8.41821Z" fill="white"/>
<path d="M19.038 15.087H15.9824C15.6533 16.4861 15.1362 17.5588 14.5251 18.2584C16.4525 17.8853 18.0508 16.7193 19.038 15.087Z" fill="white"/>
<path d="M19.038 7.81106C18.0508 6.22535 16.4525 5.05939 14.5251 4.63965C15.1362 5.33922 15.6533 6.41191 15.9824 7.81106H19.038Z" fill="white"/>
<path d="M20.0722 11.7749H16.3584C16.3584 12.7543 16.2644 13.6871 16.0764 14.5266H19.367C19.7901 13.6871 20.0722 12.7543 20.0722 11.7749Z" fill="white"/>
<path d="M16.3584 11.1696H20.0722C20.0252 10.1902 19.7901 9.25745 19.367 8.4646H16.0764C16.2644 9.25745 16.3584 10.1902 16.3584 11.1696Z" fill="white"/>
<path d="M23.1749 11.4491V24.7876C22.8929 24.6944 3.38375 24.6944 3.05468 24.7876C3.05468 10.5163 2.91365 11.076 3.43076 11.076C3.43076 11.076 4.22993 11.076 5.45218 11.076C5.45218 11.1692 5.45218 11.3092 5.45218 11.4024C5.45218 15.5999 8.93092 19.0511 13.1618 19.0511C17.3927 19.0511 20.8714 15.5999 20.8714 11.4024C20.8714 11.3092 20.8714 11.1692 20.8714 11.076C21.0125 11.076 21.1065 11.076 21.1065 11.076H22.8929C22.9869 11.1226 23.1749 11.2625 23.1749 11.4491Z" fill="white"/>
<path d="M22.7988 25.674H3.38369C2.91359 25.674 3.00761 25.9538 3.00761 29.3118C3.00761 29.4984 3.14864 29.6849 3.38369 29.6849H3.99482C4.04183 25.8606 9.54199 25.1144 10.6702 28.7521C11.0933 27.353 12.4096 26.3736 13.9139 26.3736C15.7943 26.3736 17.2986 27.866 17.2986 29.6849C22.9398 29.6849 23.1279 29.8248 23.1279 29.3118C23.1749 26.0005 23.2689 25.674 22.7988 25.674Z" fill="white"/>
<path d="M32.9999 21.3362V21.2895C32.9999 21.2895 32.9999 21.2895 32.9999 21.2429C32.9529 21.1496 32.8119 21.0563 32.6709 21.0563H24.1151C24.1151 29.9176 24.1621 29.358 24.0681 29.6844H24.3501C24.3971 27.8655 25.9014 26.3731 27.7348 26.3731C29.5682 26.3731 31.1195 27.8655 31.1195 29.6844H32.6239C32.8119 29.6844 32.9999 29.5445 32.9999 29.3113V21.3828C32.9999 21.3828 32.9999 21.3828 32.9999 21.3362Z" fill="white"/>
<path d="M13.9609 27.3061C12.5977 27.3061 11.4694 28.4254 11.4694 29.7779C11.4694 31.1304 12.5977 32.2498 13.9609 32.2498C15.3242 32.2498 16.4525 31.1304 16.4525 29.7779C16.4055 28.3788 15.2772 27.3061 13.9609 27.3061ZM13.8669 30.4775C13.4438 30.4775 13.1148 30.151 13.1148 29.7313C13.1148 29.3115 13.4438 28.9851 13.8669 28.9851C14.29 28.9851 14.6191 29.3115 14.6191 29.7313C14.6191 30.151 14.29 30.4775 13.8669 30.4775Z" fill="white"/>
<path d="M27.7349 27.3061C26.3716 27.3061 25.2434 28.4254 25.2434 29.7779C25.2434 31.1304 26.3716 32.2498 27.7349 32.2498C29.0982 32.2498 30.2265 31.1304 30.2265 29.7779C30.1794 28.3788 29.0982 27.3061 27.7349 27.3061ZM27.7349 30.4775C27.3118 30.4775 26.9828 30.151 26.9828 29.7313C26.9828 29.3115 27.3118 28.9851 27.7349 28.9851C28.158 28.9851 28.4871 29.3115 28.4871 29.7313C28.4871 30.151 28.158 30.4775 27.7349 30.4775Z" fill="white"/>
<path d="M7.42657 27.3061C6.06328 27.3061 4.98206 28.4254 4.98206 29.7779C4.98206 31.1304 6.11029 32.2498 7.42657 32.2498C8.78986 32.2498 9.9181 31.1304 9.9181 29.7779C9.87109 28.3788 8.78986 27.3061 7.42657 27.3061ZM7.42657 30.4775C7.00348 30.4775 6.67441 30.151 6.67441 29.7313C6.67441 29.3115 7.00348 28.9851 7.42657 28.9851C7.84966 28.9851 8.17873 29.3115 8.17873 29.7313C8.13172 30.151 7.80265 30.4775 7.42657 30.4775Z" fill="white"/>
<path d="M29.6623 14.9469C29.4272 14.4805 28.9101 14.1541 28.346 14.1541H24.1151V20.1238H32.3889L29.6623 14.9469ZM30.6495 19.4242H24.8673C24.3972 19.4242 24.4912 19.2376 24.4912 15.2267C24.4912 15.0402 24.6322 14.8536 24.8673 14.8536H28.6281C28.7691 14.8536 28.8631 14.9469 28.9571 15.0402L30.9315 18.8179C30.9786 18.8645 31.0256 18.9578 31.0256 19.0511C31.0256 19.2843 30.8375 19.4242 30.6495 19.4242Z" fill="white"/>
<path d="M25.2434 15.6001V18.7249H30.0854L28.4401 15.6001H25.2434ZM28.158 16.7661L26.2776 18.2585C26.1366 18.3984 25.9015 18.3518 25.7605 18.2118C25.6195 18.0719 25.6665 17.8387 25.8075 17.6988L27.6879 16.2064C27.829 16.0665 28.064 16.1131 28.205 16.253C28.3461 16.4396 28.3461 16.6728 28.158 16.7661Z" fill="white"/>
<path d="M28.158 16.7661L26.2776 18.2585C26.1366 18.3984 25.9015 18.3518 25.7605 18.2118C25.6195 18.0719 25.6665 17.8387 25.8075 17.6988L27.6879 16.2064C27.829 16.0665 28.064 16.1131 28.205 16.253C28.3461 16.4396 28.3461 16.6728 28.158 16.7661Z" fill="white"/>
</svg>
