<svg width="32" height="32" viewBox="0 0 32 32" fill="none" xmlns="http://www.w3.org/2000/svg">
<path d="M15.9968 3C14.3876 3 13.0705 4.32339 13.0705 5.9326C13.0705 6.39851 13.1902 6.83377 13.3863 7.22586L9.76343 14.4733H5.5374C4.14492 14.4733 3 15.6246 3 17.0173V26.464C3 27.8567 4.14492 29 5.5374 29H26.4626C27.8551 29 29 27.8567 29 26.464V17.0173C29 15.6246 27.8551 14.4735 26.4626 14.4735L22.2366 14.4733L18.6123 7.22447C18.8085 6.83273 18.9297 6.39819 18.9297 5.93284C18.9297 4.32363 17.6061 3.00024 15.9971 3.00024L15.9968 3ZM15.9968 4.62499C16.7276 4.62499 17.3044 5.20172 17.3044 5.9326C17.3044 6.2021 17.2257 6.4493 17.0902 6.65461H17.09C17.0728 6.67347 17.0563 6.69305 17.0408 6.71337C16.9795 6.79552 16.9097 6.86825 16.833 6.93245C16.761 6.99266 16.6823 7.04344 16.5998 7.08643C16.5909 7.09096 16.5818 7.09477 16.5728 7.09912C16.492 7.13866 16.4065 7.16894 16.3188 7.19107C16.3132 7.19252 16.3085 7.19615 16.3029 7.19742C16.3014 7.19778 16.2996 7.19706 16.2982 7.19742C16.2095 7.21846 16.1183 7.22861 16.0252 7.23079C16.0176 7.23097 16.0107 7.23387 16.0031 7.23387H15.9968C15.8961 7.23333 15.7974 7.22172 15.7017 7.19887C15.6037 7.17566 15.5085 7.14192 15.4193 7.09731C15.2407 7.00808 15.0825 6.87804 14.9592 6.71319L14.9588 6.71337C14.9416 6.68961 14.9231 6.66676 14.9033 6.64518C14.7724 6.44169 14.6955 6.1983 14.6955 5.93259C14.6955 5.20172 15.2659 4.62499 15.9967 4.62499L15.9968 4.62499ZM17.4234 8.47167L20.4242 14.4735H11.5773L14.5764 8.47353C14.9994 8.71183 15.4794 8.86073 15.9967 8.86073C16.0016 8.86073 16.0061 8.8591 16.011 8.8591C16.5244 8.85656 17.0027 8.70929 17.4234 8.4719L17.4234 8.47167ZM19.5768 18.5991C19.8059 18.5884 20.0288 18.6751 20.1908 18.8376C20.3525 19.0001 20.4381 19.2233 20.4263 19.4524C20.4146 19.6814 20.3067 19.8949 20.1291 20.04L14.6589 24.6879C14.4903 24.8299 14.2712 24.8974 14.0517 24.8747C13.8325 24.8519 13.6317 24.741 13.4959 24.5673L11.7566 22.379C11.5754 22.1508 11.5297 21.8433 11.6369 21.5723C11.7439 21.3014 11.9873 21.1082 12.2755 21.0654C12.5637 21.0226 12.8528 21.1369 13.0339 21.365L14.2463 22.8995L19.08 18.7973C19.2172 18.6787 19.3904 18.6094 19.5718 18.6006C19.5735 18.6 19.5751 18.5995 19.5765 18.5989L19.5768 18.5991Z" fill="white"/>
</svg>
