<svg width="36" height="36" viewBox="0 0 36 36" fill="none" xmlns="http://www.w3.org/2000/svg">
<path d="M15.3361 15.0923H15.291H15.2458C15.291 15.1385 15.291 15.1846 15.291 15.2308C15.291 16.8 16.5552 18.1385 18.0903 18.1385C19.4448 18.1385 20.8445 17.1692 20.8896 15.0461C19.2191 16.2 17.1421 16.2923 15.3361 15.0923Z" fill="white"/>
<path d="M19.1739 6.46154C20.3026 7.10769 23.1922 7.93846 22.8762 6.92308C22.0635 4.52308 20.2123 3 18.0902 3C15.4715 3 13.2591 5.44615 13.0334 8.58462C12.9431 9.50769 16.7357 9.50769 19.1739 6.46154Z" fill="white"/>
<path d="M18.0903 15.2773C21.3411 15.2773 23.6889 11.6773 23.0568 7.93887C22.3344 8.44656 20.2123 7.80041 19.3093 7.33887C18.1806 8.53887 16.3294 9.78502 14.2976 9.78502C13.6655 9.78502 13.0786 9.64656 12.9883 9.60041C13.214 12.7389 15.4264 15.2773 18.0903 15.2773ZM20.0317 9.78502C20.3478 9.78502 20.6187 10.0619 20.6187 10.385C20.6187 10.7081 20.3478 10.985 20.0317 10.985C19.7157 10.985 19.4448 10.7081 19.4448 10.385C19.4448 10.0619 19.7157 9.78502 20.0317 9.78502ZM16.3745 9.78502C16.6906 9.78502 16.9615 10.0619 16.9615 10.385C16.9615 10.7081 16.6906 10.985 16.3745 10.985C16.0585 10.985 15.7876 10.7081 15.7876 10.385C15.7876 10.0158 16.0585 9.78502 16.3745 9.78502Z" fill="white"/>
<path d="M6.84771 28.2462V26.8615H17.7741V28.2462C17.8644 28.2462 17.9999 28.2 18.1353 28.2C18.2708 28.2 18.3611 28.2 18.4965 28.2462V26.8615H29.2424V28.2462C29.3327 28.2462 29.4681 28.2 29.6036 28.2C29.739 28.2 29.8293 28.2 29.9648 28.2462V26.4923C29.9648 26.3077 29.8293 26.1231 29.6036 26.1231H18.4514V23.8154H27.2557C27.4363 23.8154 27.6169 23.6769 27.6169 23.4462V20.4C27.6169 19.2923 27.2106 18.2769 26.443 17.4923C25.6755 16.7077 24.6822 16.2923 23.5985 16.2923C22.7407 16.2923 22.0183 15.7385 21.7474 15C21.5668 15.0462 21.6571 15 21.6119 15C21.5216 17.5385 19.7608 18.7385 18.1353 18.7385C16.1939 18.7385 14.6587 17.1231 14.6587 15.1385C14.6587 15.0923 14.6587 15.0462 14.6587 15.0462C14.6136 15.0462 14.5684 15 14.5233 15C14.2072 15.7385 13.4848 16.2923 12.6721 16.2923C10.4598 16.2923 8.69888 18.1385 8.69888 20.3538V23.5385C8.69888 23.7231 8.83434 23.9077 9.06009 23.9077H17.8644V26.2154H6.48651C6.30591 26.2154 6.12531 26.3538 6.12531 26.5846V28.3385C6.21561 28.3385 6.35106 28.2923 6.48651 28.2923C6.62196 28.2462 6.75741 28.2462 6.84771 28.2462Z" fill="white"/>
<path d="M18.0902 28.9387C17.0066 28.9387 16.1036 29.8618 16.1036 30.9695C16.1036 32.0772 17.0066 33.0003 18.0902 33.0003C19.1738 33.0003 20.0768 32.0772 20.0768 30.9695C20.0768 29.8156 19.1738 28.9387 18.0902 28.9387Z" fill="white"/>
<path d="M6.48656 28.9385C5.40295 28.9385 4.49994 29.8616 4.49994 30.9692C4.49994 32.0769 5.40295 33 6.48656 33C7.57017 33 8.47318 32.0769 8.47318 30.9692C8.51833 29.8154 7.61532 28.9385 6.48656 28.9385Z" fill="white"/>
<path d="M29.5133 28.9387C28.4297 28.9387 27.5267 29.8618 27.5267 30.9695C27.5267 32.0772 28.4297 33.0003 29.5133 33.0003C30.5969 33.0003 31.4999 32.0772 31.4999 30.9695C31.4999 29.8156 30.5969 28.9387 29.5133 28.9387Z" fill="white"/>
</svg>
